<?xml version="1.0" standalone="no"?>
<!DOCTYPE svg PUBLIC "-//W3C//DTD SVG 20010904//EN"
 "http://www.w3.org/TR/2001/REC-SVG-20010904/DTD/svg10.dtd">
<svg version="1.0" xmlns="http://www.w3.org/2000/svg"
 width="512.000000pt" height="512.000000pt" viewBox="0 0 512.000000 512.000000"
 preserveAspectRatio="xMidYMid meet">
<metadata>
Created by potrace 1.16, written by Peter Selinger 2001-2019
</metadata>
<g transform="translate(0.000000,512.000000) scale(0.100000,-0.100000)"
fill="#000000" stroke="none">
<path d="M2230 5104 c-452 -58 -882 -237 -1250 -522 -112 -87 -313 -284 -405
-397 -282 -346 -466 -750 -547 -1202 -20 -115 -23 -158 -23 -423 1 -321 6
-376 66 -618 90 -369 254 -695 505 -1007 85 -106 276 -295 389 -385 320 -254
735 -442 1135 -514 260 -47 643 -48 900 -3 600 106 1139 418 1532 887 287 342
493 795 564 1245 22 137 30 523 14 668 -65 600 -328 1140 -761 1562 -138 134
-244 220 -394 318 -323 210 -692 344 -1075 392 -153 19 -501 18 -650 -1z m409
-900 c39 -11 67 -29 101 -64 85 -84 80 -4 80 -1254 l0 -1100 368 366 c340 339
371 367 421 383 180 59 355 -78 338 -265 -2 -31 -13 -72 -22 -91 -24 -47
-1200 -1225 -1249 -1251 -56 -29 -132 -34 -197 -13 -51 16 -87 51 -652 614
-329 328 -610 615 -624 638 -78 133 -8 320 138 368 61 21 148 16 200 -10 19
-9 197 -180 396 -378 l363 -361 2 1119 3 1120 31 55 c20 36 47 66 78 88 80 53
136 63 225 36z"/>
</g>
</svg>
